<svg xmlns="http://www.w3.org/2000/svg" viewBox="0 0 803.59 458"><defs><style>.cls-1{fill:#fff;}.cls-2{fill:#8fdbff;}.cls-2,.cls-3{opacity:0.5;}.cls-3{fill:#b0ff98;}</style></defs><title>BG</title><g id="Layer_2" data-name="Layer 2"><g id="Layer_3" data-name="Layer 3"><rect class="cls-1" width="803.59" height="458"/><path class="cls-2" d="M146.13,111.58V210.5L304,343,317.19,353a21.2,21.2,0,0,1,8.44,16.94V426.5a13,13,0,0,1-13,13h0a13,13,0,0,1-13-13V372.27L146.13,243.08V423.5a13,13,0,0,1-13,13h0a13,13,0,0,1-13-13v-321A16.88,16.88,0,0,1,137,85.58H683.47v26Z"/><path class="cls-3" d="M325.63,235.61V363.1a13,13,0,0,1-13,13h0a13,13,0,0,1-13-13V255.85L137.4,373.62a13,13,0,0,1-18.16-2.88h0a13,13,0,0,1,2.89-18.16L287.35,232.65,127.08,111.58H55.3a13,13,0,0,1-13-13h0a13,13,0,0,1,13-13h75.47a15,15,0,0,1,9.06,3l14.64,11.06,154.87,117,11,8.32h0A13.31,13.31,0,0,1,325.63,235.61Z"/></g></g></svg>