<svg xmlns="http://www.w3.org/2000/svg" viewBox="0 0 175.93 125.75"><defs><style>.cls-1{fill:#8ba8af;}.cls-2{fill:#ebfbff;}.cls-3{fill:#b2ccd3;}</style></defs><title>PaperPlane2</title><g id="Layer_2" data-name="Layer 2"><g id="Layer_1-2" data-name="Layer 1"><polygon class="cls-1" points="57.74 107.22 45.13 123.76 44.77 100.81 57.74 107.22"/><polygon class="cls-2" points="117.93 63.88 95.25 125.75 57.74 107.22 44.77 100.81 85.49 57.05 90.86 51.29 95.28 57.93 97.02 60.55 102.94 55.93 105 62.17 117.93 63.88"/><polygon class="cls-2" points="86.25 40.03 83.8 54.6 85.49 57.05 44.77 100.81 26.24 87.42 0 69.52 71.58 32.31 72.33 38.7 78.64 36.96 77.78 43.05 86.25 40.03"/><polygon class="cls-3" points="86.25 40.03 83.8 54.6 85.49 57.05 44.77 100.81 45.13 123.76 26.24 87.42 86.25 40.03"/><polygon class="cls-2" points="175.93 0 106.81 21.89 106.81 21.89 97.82 21.71 100.78 16.32 94.27 15.72 95.82 9.47 175.93 0"/><polygon class="cls-3" points="175.93 0 107.13 34.05 100.07 37.54 99.36 34.65 106.81 21.89 106.81 21.89 175.93 0"/><polygon class="cls-2" points="175.93 0 128 55.41 128 55.41 116.52 49.23 116.8 42.67 109.62 44.89 108.92 41.83 107.13 34.05 175.93 0"/></g></g></svg>